Coordinates
version=1
nRows=41
nColumns=38
inDegrees=no

Units are S.I. units (second, meters, Newtons, ...)
If the header above contains a line with 'inDegrees', this indicates whether rotational values are in degrees (yes) or radians (no).

endheader
time	pelvis_tilt	pelvis_list	pelvis_rotation	pelvis_tx	pelvis_ty	pelvis_tz	hip_flexion_r	hip_adduction_r	hip_rotation_r	knee_angle_r	ankle_angle_r	subtalar_angle_r	mtp_angle_r	hip_flexion_l	hip_adduction_l	hip_rotation_l	knee_angle_l	ankle_angle_l	subtalar_angle_l	mtp_angle_l	lumbar_extension	lumbar_bending	lumbar_rotation	arm_flex_r	arm_add_r	arm_rot_r	elbow_flex_r	pro_sup_r	wrist_flex_r	wrist_dev_r	arm_flex_l	arm_add_l	arm_rot_l	elbow_flex_l	pro_sup_l	wrist_flex_l	wrist_dev_l
35	0.495426	1.56253	1.21563	0.805851	-0.448139	1.07213	0.0358553	-0.0932705	-0.0815432	0.32235	-0.293522	0	0	-0.00492211	0.00806512	-0.139743	0.317732	-0.213486	0	0	-0.0898653	0.052325	0.0578202	0.198573	-0.520775	0.262005	1.57322	1.5708	0	0	0.195882	-0.0657033	0.271075	1.37319	1.5708	0	0
35.01	0.610219	1.56225	1.10208	0.80419	-0.447008	1.07197	0.0371213	-0.0939087	-0.0804549	0.327516	-0.30563	0	0	-0.00668943	0.0084443	-0.137608	0.316202	-0.222435	0	0	-0.0886777	0.0526744	0.0698928	0.176953	-0.522527	0.234245	1.58267	1.5708	0	0	0.208212	-0.0631656	0.291068	1.36015	1.5708	0	0
35.02	0.672677	1.56122	1.04076	0.802502	-0.445867	1.07167	0.0409738	-0.0947691	-0.0789854	0.338066	-0.301653	0	0	-0.00697868	0.00853121	-0.137086	0.317081	-0.220717	0	0	-0.0871871	0.0539286	0.070061	0.173237	-0.524884	0.229896	1.58439	1.5708	0	0	0.210556	-0.0617746	0.295283	1.35738	1.5708	0	0
35.03	0.734498	1.5604	0.98015	0.800806	-0.444749	1.0714	0.0451801	-0.0956897	-0.0764314	0.349535	-0.297871	0	0	-0.00783207	0.00871959	-0.136228	0.31736	-0.219154	0	0	-0.0855761	0.0551246	0.0700599	0.170257	-0.527245	0.226333	1.58514	1.5708	0	0	0.213396	-0.0604335	0.299718	1.3537	1.5708	0	0
35.04	0.824063	1.55912	0.8912	0.799188	-0.443531	1.07112	0.0497714	-0.0956615	-0.0720589	0.36148	-0.294205	0	0	-0.00893634	0.00798707	-0.136669	0.317407	-0.217691	0	0	-0.0831419	0.0569457	0.0702795	0.167974	-0.529704	0.224014	1.58468	1.5708	0	0	0.215935	-0.0588941	0.303677	1.34933	1.5708	0	0
35.05	0.979104	1.55776	0.736046	0.797663	-0.442217	1.07089	0.0534659	-0.0944543	-0.0658238	0.3723	-0.295907	0	0	-0.0115107	0.00616768	-0.138723	0.316581	-0.217258	0	0	-0.0816474	0.0604155	0.0648185	0.175328	-0.531849	0.233083	1.57981	1.5708	0	0	0.213539	-0.0579697	0.299381	1.34979	1.5708	0	0
35.06	1.00649	1.55573	0.709065	0.796042	-0.441011	1.07055	0.0605754	-0.0942874	-0.0596529	0.387358	-0.292546	0	0	-0.0122214	0.00515619	-0.139034	0.316038	-0.216183	0	0	-0.0787374	0.0627608	0.0655611	0.173057	-0.534564	0.230262	1.5794	1.5708	0	0	0.21685	-0.0559428	0.30399	1.34434	1.5708	0	0
35.07	1.01539	1.55363	0.70081	0.79446	-0.439821	1.07024	0.068361	-0.0940147	-0.0526162	0.40314	-0.289469	0	0	-0.0127423	0.00416582	-0.138014	0.315155	-0.215717	0	0	-0.0759816	0.0652129	0.0653925	0.171946	-0.537008	0.228381	1.57872	1.5708	0	0	0.219968	-0.0541081	0.307959	1.33923	1.5708	0	0
35.08	1.02176	1.55115	0.694723	0.792998	-0.438585	1.06989	0.0773148	-0.0930998	-0.0445504	0.420659	-0.286	0	0	-0.0129582	0.00258923	-0.137202	0.314453	-0.215281	0	0	-0.0726526	0.0679986	0.0655122	0.171284	-0.539533	0.227114	1.57752	1.5708	0	0	0.223152	-0.0522234	0.311992	1.33358	1.5708	0	0
35.09	1.06825	1.5492	0.648063	0.791631	-0.437392	1.06967	0.0859013	-0.0920224	-0.0349555	0.439083	-0.282563	0	0	-0.0143879	0.00074207	-0.136725	0.313481	-0.215125	0	0	-0.0705917	0.0705375	0.0688691	0.167731	-0.542754	0.221746	1.57763	1.5708	0	0	0.229181	-0.0496947	0.319554	1.32532	1.5708	0	0
35.1	2.4192	1.52003	-0.753408	0.791048	-0.442975	1.07464	0.0665862	-0.0692327	0.0466419	0.468619	-0.292351	0	0	-0.0695154	-0.0140519	-0.19831	0.306172	-0.213836	0	0	-0.151765	0.102701	0.116879	0.218511	-0.58654	0.244329	1.5887	1.5708	0	0	0.257329	-0.0190643	0.306991	1.31984	1.5708	0	0
35.11	0.792782	1.53528	0.921667	0.788921	-0.434343	1.06836	0.121067	-0.0891403	-0.0097052	0.481071	-0.275713	0	0	-0.00196893	-0.00205789	-0.133737	0.312178	-0.215715	0	0	-0.0514098	0.077629	0.0574513	0.181194	-0.544627	0.240283	1.56545	1.5708	0	0	0.22026	-0.0470742	0.309606	1.32475	1.5708	0	0
35.12	0.91825	1.53506	0.794792	0.787419	-0.4333	1.06845	0.12776	-0.0862268	0.00214065	0.501051	-0.274963	0	0	-0.00734806	-0.00482454	-0.135403	0.31086	-0.214832	0	0	-0.0549987	0.0827505	0.0569231	0.187507	-0.549139	0.243927	1.56291	1.5708	0	0	0.223757	-0.0433423	0.309394	1.32128	1.5708	0	0
35.13	1.01814	1.53433	0.6932	0.786154	-0.432165	1.06853	0.135979	-0.0835153	0.0138434	0.522735	-0.276307	0	0	-0.0125374	-0.00697184	-0.137345	0.308804	-0.213852	0	0	-0.0578421	0.0866981	0.0569961	0.193061	-0.552833	0.247047	1.55993	1.5708	0	0	0.227578	-0.0402445	0.309866	1.31753	1.5708	0	0
35.14	1.11307	1.53321	0.59682	0.785019	-0.430951	1.06865	0.144033	-0.0805384	0.0253201	0.542478	-0.279638	0	0	-0.0178388	-0.00916137	-0.13925	0.306674	-0.212958	0	0	-0.0607568	0.0902707	0.0570579	0.197958	-0.555647	0.249119	1.55672	1.5708	0	0	0.231565	-0.0373941	0.310443	1.31375	1.5708	0	0
35.15	1.2015	1.53212	0.507458	0.783926	-0.429846	1.06883	0.153056	-0.0778777	0.0360326	0.563812	-0.284178	0	0	-0.0230401	-0.0108039	-0.140361	0.304638	-0.211962	0	0	-0.064012	0.0934415	0.0563098	0.204102	-0.55822	0.252352	1.55264	1.5708	0	0	0.235885	-0.0346584	0.31055	1.30966	1.5708	0	0
35.16	1.26834	1.53048	0.439485	0.782979	-0.428734	1.06897	0.163553	-0.074648	0.046868	0.586333	-0.288471	0	0	-0.0272221	-0.0125378	-0.141834	0.303032	-0.210999	0	0	-0.0668436	0.0967948	0.0551216	0.211052	-0.560192	0.256158	1.54843	1.5708	0	0	0.239633	-0.032273	0.309769	1.30631	1.5708	0	0
35.17	1.33155	1.52887	0.37493	0.782223	-0.427588	1.06914	0.174312	-0.0711656	0.0571049	0.609335	-0.29281	0	0	-0.0313266	-0.0144419	-0.144026	0.301868	-0.210255	0	0	-0.070105	0.0999031	0.0538366	0.218446	-0.561515	0.260132	1.54424	1.5708	0	0	0.243363	-0.0306369	0.309016	1.30352	1.5708	0	0
35.18	1.39643	1.52695	0.308655	0.781588	-0.426413	1.06939	0.184813	-0.0672158	0.0661992	0.631494	-0.297168	0	0	-0.035551	-0.0168282	-0.146307	0.300761	-0.209891	0	0	-0.0741532	0.103282	0.0526683	0.225775	-0.562403	0.263568	1.54058	1.5708	0	0	0.246872	-0.0288485	0.30767	1.30123	1.5708	0	0
35.19	1.46213	1.52445	0.241505	0.781039	-0.425253	1.06973	0.195198	-0.0624921	0.0747283	0.652919	-0.301361	0	0	-0.039916	-0.0198303	-0.148319	0.299565	-0.209918	0	0	-0.0785293	0.107022	0.0520871	0.232835	-0.563183	0.266563	1.5367	1.5708	0	0	0.250935	-0.0269441	0.306931	1.29804	1.5708	0	0
35.2	1.52414	1.52123	0.177928	0.780541	-0.424111	1.07018	0.205496	-0.0567697	0.0836296	0.673305	-0.304618	0	0	-0.044252	-0.0235491	-0.150196	0.298541	-0.21023	0	0	-0.0839065	0.111025	0.0551068	0.234746	-0.564113	0.262379	1.53587	1.5708	0	0	0.25744	-0.0237901	0.309565	1.29273	1.5708	0	0
35.21	1.55566	1.51788	0.144338	0.780159	-0.422843	1.07048	0.217053	-0.0513664	0.0911027	0.692928	-0.305419	0	0	-0.047191	-0.0272799	-0.152963	0.298366	-0.210126	0	0	-0.0866739	0.116033	0.0515793	0.247243	-0.563861	0.272574	1.52865	1.5708	0	0	0.258219	-0.0222706	0.303851	1.29163	1.5708	0	0
35.22	1.58653	1.51486	0.111319	0.779849	-0.421467	1.07081	0.227385	-0.0464223	0.0971341	0.709349	-0.30471	0	0	-0.0506479	-0.0305403	-0.155024	0.297723	-0.210416	0	0	-0.0901095	0.11977	0.0521883	0.253356	-0.563624	0.27456	1.52456	1.5708	0	0	0.261762	-0.0199099	0.302489	1.28822	1.5708	0	0
35.23	1.6096	1.51219	0.0862136	0.779507	-0.420087	1.07122	0.235358	-0.0416256	0.102852	0.718011	-0.30566	0	0	-0.0537296	-0.0330351	-0.155834	0.297045	-0.210719	0	0	-0.0940909	0.1224	0.0557581	0.2546	-0.56357	0.269874	1.52313	1.5708	0	0	0.267494	-0.0166746	0.304244	1.28312	1.5708	0	0
35.24	1.64603	1.50909	0.0477367	0.779216	-0.418595	1.0717	0.245667	-0.0371643	0.10671	0.733769	-0.30097	0	0	-0.0579161	-0.0362812	-0.157954	0.296543	-0.211787	0	0	-0.0976008	0.1264	0.0543452	0.264484	-0.563105	0.276631	1.51625	1.5708	0	0	0.269829	-0.0144408	0.299945	1.2802	1.5708	0	0
35.25	1.66419	1.50579	0.0277715	0.778891	-0.417035	1.0721	0.253868	-0.0322348	0.109866	0.739943	-0.301775	0	0	-0.0611437	-0.0394066	-0.158656	0.295946	-0.211855	0	0	-0.101282	0.129561	0.0571918	0.266599	-0.563334	0.273653	1.5145	1.5708	0	0	0.274854	-0.0110324	0.300183	1.27572	1.5708	0	0
35.26	1.68192	1.50239	0.00810157	0.778568	-0.41544	1.07248	0.262333	-0.0274927	0.11219	0.745549	-0.299753	0	0	-0.0645612	-0.0426171	-0.159649	0.295355	-0.212115	0	0	-0.10453	0.133581	0.0583748	0.272124	-0.563482	0.274892	1.51079	1.5708	0	0	0.278744	-0.00773648	0.297823	1.27171	1.5708	0	0
35.27	1.69493	1.49905	-0.00708004	0.778314	-0.413801	1.07282	0.270424	-0.0225719	0.114436	0.747969	-0.297274	0	0	-0.0676973	-0.0458189	-0.161008	0.294969	-0.21224	0	0	-0.107615	0.137666	0.059943	0.277811	-0.563722	0.276435	1.50734	1.5708	0	0	0.282754	-0.00462882	0.295506	1.26768	1.5708	0	0
35.28	1.70981	1.49567	-0.0246467	0.778264	-0.412183	1.07319	0.277784	-0.0171074	0.116829	0.747378	-0.294462	0	0	-0.0709691	-0.0492082	-0.163047	0.294894	-0.212263	0	0	-0.111125	0.141363	0.0627199	0.283061	-0.563579	0.277177	1.50401	1.5708	0	0	0.287522	-0.00185878	0.294079	1.2632	1.5708	0	0
35.29	1.73335	1.49216	-0.0507592	0.778354	-0.410585	1.07363	0.284739	-0.0114562	0.118099	0.745758	-0.291674	0	0	-0.0749998	-0.0529061	-0.165088	0.295059	-0.212253	0	0	-0.11557	0.145024	0.0664507	0.28747	-0.563366	0.276599	1.50127	1.5708	0	0	0.293356	0.000467394	0.294124	1.25789	1.5708	0	0
35.3	1.73815	1.4894	-0.0569883	0.778059	-0.408687	1.07385	0.292297	-0.00793972	0.116045	0.741603	-0.289059	0	0	-0.0779629	-0.0553334	-0.165793	0.294584	-0.21224	0	0	-0.117032	0.148462	0.0694831	0.289279	-0.563538	0.274639	1.49932	1.5708	0	0	0.29822	0.00330597	0.294866	1.25141	1.5708	0	0
35.31	1.72663	1.48696	-0.0475624	0.777856	-0.406654	1.07393	0.300853	-0.00463042	0.114512	0.734016	-0.287511	0	0	-0.0799306	-0.0572775	-0.166422	0.293421	-0.21227	0	0	-0.117045	0.151793	0.0728069	0.290581	-0.563491	0.272883	1.49768	1.5708	0	0	0.302042	0.00592136	0.295244	1.24543	1.5708	0	0
35.32	1.71358	1.48443	-0.0377939	0.778003	-0.404665	1.07399	0.309366	-0.000317119	0.114634	0.724272	-0.286993	0	0	-0.0820143	-0.0595116	-0.167895	0.291922	-0.212309	0	0	-0.11988	0.154812	0.0755722	0.294469	-0.562517	0.272697	1.49752	1.5708	0	0	0.304323	0.00732115	0.292805	1.24489	1.5708	0	0
35.33	1.70955	1.4817	-0.0381243	0.778434	-0.402728	1.07415	0.316942	0.00497707	0.116093	0.713241	-0.286944	0	0	-0.0851235	-0.0621428	-0.170698	0.290507	-0.21235	0	0	-0.124422	0.157527	0.0790073	0.299645	-0.561179	0.273387	1.49718	1.5708	0	0	0.306324	0.00845898	0.289015	1.24583	1.5708	0	0
35.34	1.7044	1.47943	-0.0368423	0.778683	-0.40065	1.07423	0.32395	0.00911565	0.1166	0.699992	-0.287412	0	0	-0.0883348	-0.0640348	-0.173156	0.288896	-0.212294	0	0	-0.128407	0.159836	0.0818177	0.304424	-0.560049	0.274124	1.49701	1.5708	0	0	0.307796	0.00980284	0.284825	1.24703	1.5708	0	0
35.35	1.69182	1.47768	-0.0277082	0.77879	-0.39843	1.07419	0.331134	0.0121404	0.116129	0.684977	-0.288417	0	0	-0.0911805	-0.0651347	-0.174745	0.286584	-0.212138	0	0	-0.131328	0.161827	0.083859	0.309103	-0.559103	0.275318	1.49703	1.5708	0	0	0.308591	0.0109048	0.280478	1.24886	1.5708	0	0
35.36	1.67328	1.47602	-0.0127376	0.77893	-0.396131	1.07406	0.338397	0.0152629	0.116434	0.668145	-0.291048	0	0	-0.0936327	-0.0660466	-0.175768	0.283929	-0.211905	0	0	-0.133692	0.163834	0.085234	0.314819	-0.55804	0.278034	1.49677	1.5708	0	0	0.308644	0.01174	0.275184	1.25165	1.5708	0	0
35.37	1.65069	1.47443	0.00573965	0.779223	-0.393741	1.07384	0.346067	0.0186321	0.117439	0.650796	-0.294624	0	0	-0.0957391	-0.066937	-0.177244	0.281406	-0.211412	0	0	-0.13501	0.165507	0.0871616	0.320555	-0.556729	0.281143	1.49574	1.5708	0	0	0.308757	0.012222	0.270421	1.25402	1.5708	0	0
35.38	1.62999	1.47287	0.0225448	0.779548	-0.391286	1.0736	0.352646	0.0219034	0.117732	0.631156	-0.299384	0	0	-0.0979445	-0.0678442	-0.178215	0.278818	-0.210701	0	0	-0.135948	0.167004	0.0892886	0.326048	-0.555498	0.284179	1.49405	1.5708	0	0	0.309323	0.0125953	0.26644	1.25557	1.5708	0	0
35.39	1.62177	1.47151	0.0274841	0.779907	-0.388779	1.07336	0.356029	0.0249915	0.117188	0.60753	-0.309374	0	0	-0.101621	-0.0687587	-0.178637	0.27577	-0.209917	0	0	-0.137832	0.167644	0.0939327	0.327583	-0.555329	0.282216	1.49451	1.5708	0	0	0.31275	0.0129076	0.267002	1.25467	1.5708	0	0
35.4	1.59958	1.47034	0.0458747	0.780277	-0.386355	1.07296	0.365343	0.027782	0.116331	0.595601	-0.306454	0	0	-0.10306	-0.0694162	-0.180091	0.274385	-0.209259	0	0	-0.138211	0.168756	0.0961449	0.333837	-0.554997	0.286307	1.49241	1.5708	0	0	0.31411	0.0128393	0.264117	1.25557	1.5708	0	0
